<svg width="93" height="34" viewBox="0 0 93 34" fill="none" xmlns="http://www.w3.org/2000/svg">
<path fill-rule="evenodd" clip-rule="evenodd" d="M15.8128 12.0798C10.5582 8.53571 5.6213 4.5449 1.05615 0.151094L1.05666 0.150567C0.577358 -0.298024 -0.311824 0.346064 0.110749 0.900389C4.66854 6.68647 10.217 11.6143 16.5024 15.4587C27.5564 22.4082 40.0605 26.7595 53.0856 28.1893C59.6255 28.9322 66.237 28.9224 72.7908 28.1599C76.3068 27.7172 79.792 27.0615 83.2273 26.1973L83.2858 26.1566C84.7112 25.1663 86.1383 24.181 87.5706 23.2033C88.4638 23.8227 89.6 22.9131 89.2521 22.0611C89.8019 21.6895 90.3528 21.3192 90.9048 20.9503L91.9845 23.5023C89.1106 24.5534 86.1874 25.4527 83.2273 26.1973L79.7098 28.6474C79.9518 28.5791 80.216 28.6409 80.4014 28.8199C80.6281 29.0388 80.6836 29.3819 80.5381 29.665C79.9877 30.6098 79.3607 31.4704 78.7263 32.3411C78.5126 32.6344 78.2981 32.9288 78.0854 33.228L75.7591 31.5262C75.3383 31.9948 75.2487 32.6948 75.5792 33.2574C75.9774 33.9352 76.8431 34.1716 77.54 33.7928C78.8733 33.0229 80.1469 32.1526 81.3496 31.1896L84.9672 28.6389C87.4351 26.903 89.8864 25.1425 92.321 23.3575C92.9149 22.9861 93.1575 22.2422 92.8945 21.5994C92.6267 20.9537 91.9183 20.6133 91.2416 20.8052C90.4861 21.1033 89.7262 21.3888 88.9624 21.6615C87.4722 20.2691 85.8393 19.0377 84.0908 17.9879C83.1755 17.4528 82.2247 16.9809 81.245 16.5755C80.4627 16.1283 79.5675 15.9174 78.6679 15.9683C78.4007 16.0443 78.1837 16.2397 78.0804 16.4976C77.9771 16.7554 77.999 17.0466 78.1397 17.286C78.74 17.9147 79.4787 18.3945 80.297 18.6873C81.069 19.0804 81.8237 19.5091 82.5793 19.9382C82.6421 19.9739 82.7049 20.0096 82.7678 20.0453C84.079 20.7846 85.3493 21.5937 86.5732 22.469C81.2683 24.1618 75.7896 25.2501 70.242 25.7092C57.483 26.8287 44.6652 25.1025 32.7138 20.6552C26.771 18.4404 21.102 15.564 15.8128 12.0798ZM78.1424 29.6781C78.586 29.3718 79.0379 29.0774 79.4976 28.7952L79.7098 28.6474C79.6557 28.6626 79.6027 28.6844 79.552 28.7127C79.0631 29.0175 78.5978 29.3424 78.1424 29.6781ZM78.1424 29.6781C77.3137 30.2501 76.5137 30.8636 75.7456 31.5163L75.7591 31.5262C75.8453 31.4302 75.9453 31.344 76.0585 31.2706C76.3428 31.0553 76.6228 30.8386 76.9018 30.6227C77.3141 30.3036 77.7241 29.9863 78.1424 29.6781Z" fill="#8082A5"/>
</svg>
