<svg width="87" height="47" viewBox="0 0 87 47" fill="none" xmlns="http://www.w3.org/2000/svg">
<path fill-rule="evenodd" clip-rule="evenodd" d="M13.5251 14.5412C8.98858 10.1305 4.83331 5.34176 1.10479 0.227519L1.10537 0.227097C0.711849 -0.297449 -0.257105 0.169225 0.0641375 0.786586C3.56019 7.25733 8.15851 13.071 13.6489 17.9618C23.2741 26.747 34.7301 33.2616 47.1655 37.0216C53.4053 38.9338 59.8365 40.125 66.3334 40.5717C69.8242 40.7784 73.3197 40.7719 76.8004 40.553L76.8639 40.5239C78.4086 39.8178 79.9541 39.1167 81.5035 38.4241C82.2247 38.9541 83.2489 38.4125 83.241 37.652C83.8651 37.3764 84.4899 37.1023 85.1157 36.8301L85.7527 39.5151C82.7878 40.0182 79.7995 40.3644 76.8004 40.553L72.9831 42.3036C73.2296 42.281 73.4765 42.3892 73.6278 42.5974C73.8128 42.8522 73.8113 43.1968 73.6239 43.4465C72.9358 44.268 72.1868 44.9934 71.4289 45.7274C71.1737 45.9746 70.9174 46.2228 70.6622 46.476L68.6753 44.3937C68.1902 44.7743 67.9898 45.4407 68.2201 46.0495C68.4976 46.7829 69.3013 47.1706 70.0403 46.9278C71.4616 46.419 72.841 45.8015 74.1664 45.0808L78.0973 43.2502C80.7782 42.0054 83.4469 40.7336 86.1034 39.4349C86.7411 39.1806 87.0975 38.4992 86.9457 37.8244C86.7898 37.1461 86.156 36.6855 85.4667 36.7497C84.6798 36.904 83.8907 37.045 83.0998 37.1728C83.0743 37.1294 83.0451 37.0858 83.012 37.0423C81.7861 35.4106 80.3912 33.9131 78.8504 32.5747C78.0429 31.8896 77.1894 31.2605 76.296 30.6918C75.604 30.1162 74.76 29.7534 73.8661 29.6475C73.5901 29.6758 73.3428 29.8305 73.1964 30.0662C73.0501 30.3019 73.0211 30.5921 73.118 30.8521C73.5995 31.5746 74.2429 32.1747 74.9972 32.6048C75.6884 33.1253 76.3564 33.6779 77.0253 34.2312C77.0809 34.2772 77.1365 34.3232 77.1921 34.3692C78.3951 35.3579 79.5419 36.4126 80.6273 37.5284C75.2042 38.2123 69.7104 38.2773 64.2513 37.7187C51.6621 36.4932 39.4762 32.4818 28.5734 25.974C23.1525 22.7347 18.1049 18.8998 13.5251 14.5412ZM71.292 43.0241C71.773 42.806 72.2601 42.601 72.7528 42.4092L72.9831 42.3036C72.9281 42.3087 72.873 42.3202 72.8191 42.3387C72.2943 42.5472 71.7893 42.7795 71.292 43.0241ZM71.292 43.0241C70.3936 43.4316 69.5163 43.8846 68.6637 44.3816L68.6753 44.3937C68.7746 44.3158 68.8858 44.2499 69.0077 44.1988C69.3191 44.0405 69.6265 43.88 69.9327 43.7202C70.3853 43.4838 70.8354 43.2488 71.292 43.0241Z" fill="#FFD5CE"/>
</svg>
