<svg width="147" height="146" viewBox="0 0 147 146" fill="none" xmlns="http://www.w3.org/2000/svg">
<path d="M74.392 110.606L73.5 108.851L72.608 110.606L56.8382 141.639L57.2964 106.833L57.3224 104.864L55.7168 106.003L27.3316 126.153L43.9129 95.5461L44.8508 93.8149L42.8995 94.078L8.40164 98.7284L37.3075 79.3329L38.9425 78.2359L37.0925 77.562L4.38493 65.6477L38.9933 61.9071L40.9508 61.6956L39.6259 60.2391L16.2016 34.4896L48.5842 47.2608L50.4158 47.9832L49.9195 46.0778L41.1447 12.392L63.883 38.7492L65.1691 40.24L65.6151 38.3223L73.5 4.41712L81.3849 38.3223L81.8309 40.24L83.117 38.7492L105.855 12.392L97.0805 46.0778L96.5842 47.9832L98.4158 47.2608L130.798 34.4896L107.374 60.2391L106.049 61.6956L108.007 61.9071L142.615 65.6477L109.908 77.562L108.058 78.2359L109.693 79.3329L138.598 98.7284L104.1 94.078L102.149 93.8149L103.087 95.5461L119.668 126.153L91.2832 106.003L89.6777 104.864L89.7036 106.833L90.1618 141.639L74.392 110.606Z" stroke="#6A6C8E" stroke-width="2"/>
</svg>
