<svg width="122" height="148" viewBox="0 0 122 148" fill="none" xmlns="http://www.w3.org/2000/svg">
<path fill-rule="evenodd" clip-rule="evenodd" d="M21.0648 144.227C14.2477 145.711 7.13104 144.995 0.743363 142.18L-3.07506e-06 144.954C3.24791 146.494 6.74898 147.433 10.332 147.722C17.7192 148.693 25.2128 147.101 31.5577 143.215C36.4854 140.056 40.4787 135.684 43.1748 130.554C42.1848 130.259 41.2086 129.917 40.2495 129.529C39.6059 130.892 38.8554 132.211 38.0015 133.473C33.7409 138.868 27.77 142.659 21.0648 144.227ZM41.4689 126.528C41.1183 127.548 40.7115 128.55 40.2495 129.529C38.3281 128.751 36.4756 127.788 34.7196 126.646C28.6931 123.409 24.191 117.927 22.1951 111.397C21.4856 107.438 22.575 103.373 25.1685 100.299C26.9019 97.964 29.4592 96.3723 32.3248 95.8452C37.9199 96.2607 42.7678 99.8806 44.7466 105.121C47.8447 111.872 47.9368 119.612 45.0002 126.428C44.9401 126.593 44.8788 126.757 44.8162 126.921C45.5373 126.962 46.2615 126.975 46.9871 126.96C53.2469 127.829 59.6235 127.048 65.4826 124.694C78.1683 117.823 88.1537 106.879 93.8234 93.6334C97.4029 86.0092 99.1366 77.7219 98.9729 69.4248C96.4756 70.7907 93.787 71.8234 90.9731 72.4801C84.03 73.7541 76.8771 71.8374 71.5012 67.2627C66.1818 63.2025 63.4045 56.6433 64.1975 50.0135C65.1278 43.7225 69.3075 38.3882 75.2009 35.9706C82.4261 33.4196 90.4857 35.5792 95.4675 41.4011C100.024 47.8693 102.731 55.3064 103.488 62.9482C107.608 58.792 110.68 53.6924 112.421 48.0678C117.298 35.6019 116.875 21.6855 111.25 9.52351C110.593 7.46437 109.719 5.48331 108.645 3.61317L103.483 14.6639L107.094 1.18879L107.413 -0.000179296C107.919 0.545309 108.409 1.10174 108.884 1.66849L109.478 1.82767L109.311 2.18553C117.399 12.132 120.816 25.1276 118.574 37.8225C117.372 46.1467 114.088 54.032 109.023 60.7502C107.467 62.8108 105.674 64.6581 103.693 66.2614C103.833 71.824 102.942 77.4362 100.983 82.8084C97.2027 99.1499 87.7425 113.62 74.2798 123.653C68.3374 127.949 61.4499 130.764 54.1914 131.864C50.4488 132.061 46.7237 131.61 43.1748 130.554C43.7911 129.38 44.3397 128.168 44.8162 126.921C43.6912 126.857 42.5734 126.725 41.4689 126.528ZM109.311 2.18553L108.645 3.61317C108.167 2.78218 107.65 1.9731 107.094 1.18879L108.884 1.66849C109.028 1.8399 109.17 2.01225 109.311 2.18553ZM98.862 66.8635C98.9191 67.7169 98.956 68.5709 98.9729 69.4248C100.638 68.5142 102.218 67.4555 103.693 66.2614C103.666 65.1543 103.597 64.0491 103.488 62.9482C102.534 63.9103 101.525 64.8218 100.462 65.6776C99.943 66.0954 99.4091 66.4908 98.862 66.8635ZM98.862 66.8635C98.6032 62.9948 97.9302 59.1386 96.8378 55.3612C94.7785 48.8973 89.9169 43.6955 83.5973 41.1939C78.0376 39.2861 71.906 41.5531 68.9421 46.6123C65.948 51.219 65.8523 57.1297 68.6955 61.8383C71.7231 66.9357 76.9279 70.3663 82.813 71.1432C88.5163 71.5789 94.1739 70.057 98.862 66.8635ZM41.4689 126.528C42.7494 122.801 43.278 118.829 42.9926 114.845C43.7204 109.673 41.7316 104.487 37.7272 101.116C35.4215 100.006 32.7648 99.8746 30.363 100.752C27.9612 101.629 26.0193 103.44 24.9801 105.771C24.2667 109.12 24.8518 112.616 26.6177 115.555C27.8689 118.331 29.6598 120.832 31.8865 122.914C34.8448 124.704 38.0953 125.924 41.4689 126.528ZM117.783 3.23348C119.079 3.68196 120.405 4.03722 121.751 4.29654L120.957 4.08392L117.783 3.23348ZM117.783 3.23348L117.386 3.12717C116.18 2.87386 114.988 2.55446 113.816 2.17042C112.656 1.7489 111.461 1.42879 110.245 1.21367C112.585 2.41576 115.155 3.10438 117.783 3.23348Z" fill="#E7C4B2"/>
</svg>
