<svg width="274" height="96" viewBox="0 0 274 96" fill="none" xmlns="http://www.w3.org/2000/svg">
<path fill-rule="evenodd" clip-rule="evenodd" d="M271.625 20.4161L271.79 20.37C273.193 20 272.395 18.1541 271.226 18.1407C270.776 18.1348 270.455 18.2833 270.245 18.5198C270.393 18.9837 270.525 19.453 270.641 19.927L270.918 18.9093L272.282 19.7701L271.625 20.4161ZM266.68 9.60771L267.043 10.5191L269.095 15.683C269.549 16.5991 269.933 17.5474 270.245 18.5198C269.589 19.259 270.024 20.8574 271.033 21.2836C271.862 21.5685 272.777 21.2437 273.241 20.5004C273.812 19.5785 273.844 18.4205 273.324 17.4686C272.601 15.4975 271.84 13.5367 271.079 11.5757C270.675 10.5367 270.272 9.49767 269.874 8.45694C269.723 8.05833 269.572 7.65921 269.421 7.25997C269.135 6.50497 268.85 5.74955 268.559 4.99643C268.859 4.19763 269.148 3.39362 269.425 2.58464C269.697 1.88397 269.536 1.09522 269.013 0.564886C268.491 0.0345519 267.703 -0.140353 266.995 0.117035C260.973 1.70002 255.059 3.68361 249.295 6.05435C248.601 6.3573 248.223 7.11372 248.403 7.84109C248.582 8.56845 249.266 9.05253 250.017 8.98453C254.883 7.9083 259.691 6.57777 264.42 4.99881C264.481 4.851 264.542 4.70308 264.602 4.55504C264.636 4.67073 264.676 4.7852 264.721 4.89812C264.62 4.93179 264.52 4.96536 264.42 4.99881C263.873 6.32705 263.301 7.64519 262.694 8.94715C254.169 29.6086 237.093 45.6681 215.91 52.9479C206.418 55.8306 196.322 55.901 186.862 53.1505C181.465 51.4752 176.511 48.8283 171.554 46.1803C166.715 43.5951 161.874 41.0089 156.619 39.3251C137.985 33.5411 117.651 36.0788 100.828 46.2879C91.8205 52.4167 83.937 60.0533 77.5334 68.853C71.2736 77.9211 62.6637 85.1404 52.6368 89.7284C34.8263 96.1375 15.0332 90.9265 2.95223 76.6476C2.39368 75.9615 1.38487 75.8454 0.668969 76.3849C-0.0469327 76.9244 -0.213418 77.9261 0.292158 78.6521C1.69962 80.5524 3.28382 82.3152 5.02411 83.9176C19.3443 96.6408 39.9809 99.5965 57.5716 91.4439C67.5601 85.5444 76.1377 77.5256 82.6854 67.9662C86.2865 63.283 90.3179 58.9426 94.7262 55.0023C98.5233 51.7739 102.704 49.0258 107.172 46.8217C116.104 42.4372 125.893 40.1168 135.801 40.0351C145.896 40.0082 155.816 42.4192 164.712 47.0615C166.446 47.9444 168.159 48.868 169.873 49.7919C173.384 51.685 176.897 53.5788 180.586 55.1238C185.369 57.1375 190.444 58.4003 195.633 58.8677C205.825 59.6484 216.08 57.812 225.421 53.5338C243.858 43.9771 258.4 28.4209 266.68 9.60771ZM268.114 3.7093C268.057 3.5159 267.986 3.32853 267.901 3.14855L268.362 3.61855C268.279 3.64888 268.197 3.67912 268.114 3.7093ZM266.126 1.34168C266.053 1.30522 265.978 1.27095 265.901 1.23904C265.913 1.20853 265.924 1.17803 265.936 1.1475L266.126 1.34168Z" fill="#E7C4B2"/>
</svg>
