<svg width="147" height="146" viewBox="0 0 147 146" fill="none" xmlns="http://www.w3.org/2000/svg">
<path d="M73.5 111.06L55.7811 145.928L56.296 106.819L24.4025 129.459L43.0332 95.0696L4.27155 100.295L36.75 78.5021L-7.45459e-06 65.1153L38.8858 60.9124L12.5664 31.9804L48.9513 46.33L39.092 8.48082L64.6405 38.0957L73.5 0L82.3595 38.0957L107.908 8.48082L98.0487 46.33L134.434 31.9804L108.114 60.9124L147 65.1153L110.25 78.5021L142.728 100.295L103.967 95.0696L122.597 129.459L90.704 106.819L91.2189 145.928L73.5 111.06Z" fill="#EF6D58"/>
<path fill-rule="evenodd" clip-rule="evenodd" d="M63.4946 63.0339C63.4946 60.271 65.7344 58.0312 68.4973 58.0312C71.2602 58.0312 73.5 60.271 73.5 63.0339C73.5 60.271 75.7398 58.0312 78.5027 58.0312C81.2656 58.0312 83.5054 60.271 83.5054 63.0339V63.0459C83.5054 63.186 83.5054 63.5862 83.4293 64.0345H87.5075C88.6127 64.0345 89.5086 64.9304 89.5086 66.0355V68.0366C89.5086 69.1418 88.6127 70.0377 87.5075 70.0377H59.4925C58.3873 70.0377 57.4914 69.1418 57.4914 68.0366V66.0355C57.4914 64.9304 58.3873 64.0345 59.4925 64.0345H63.5707C63.5178 63.7076 63.4924 63.377 63.4946 63.0459V63.0339ZM65.6318 64.0345H71.4989V63.0339C71.4989 61.9615 70.9268 60.9706 69.9981 60.4344C69.0694 59.8983 67.9252 59.8983 66.9965 60.4344C66.0678 60.9706 65.4957 61.9615 65.4957 63.0339C65.4957 63.204 65.4997 63.5822 65.5857 63.8944C65.5978 63.9421 65.6131 63.9889 65.6318 64.0345ZM81.3682 64.0345H75.5011V63.0339C75.5011 61.3762 76.8449 60.0323 78.5027 60.0323C80.1604 60.0323 81.5043 61.3762 81.5043 63.0339C81.5043 63.204 81.5003 63.5822 81.4143 63.8944C81.402 63.942 81.3866 63.9888 81.3682 64.0345ZM87.5075 72.0388V87.0468C87.5075 88.7046 86.1637 90.0485 84.5059 90.0485H75.5011V72.0388H87.5075ZM59.4925 87.0468C59.4925 88.7046 60.8363 90.0485 62.4941 90.0485H71.4989V72.0388H59.4925V87.0468Z" fill="white"/>
</svg>
