<svg width="193" height="167" viewBox="0 0 193 167" fill="none" xmlns="http://www.w3.org/2000/svg">
<path fill-rule="evenodd" clip-rule="evenodd" d="M138.971 9.17454C131.9 2.26725 122.064 -1.01197 112.277 0.274574C102.747 1.61979 94.2816 7.07975 89.1068 15.2181C86.1523 19.7814 84.3525 24.9989 83.8636 30.4179L85.1721 29.1034C73.0613 28.053 60.8771 29.9636 49.6637 34.6715C40.247 39.186 33.5949 47.9972 31.8156 58.3125C30.8877 63.7873 32.0455 69.4119 35.0594 74.0703L35.9307 71.9249C21.1456 75.6884 8.8663 85.986 2.55464 99.9146C-0.272339 106.98 -0.767619 114.769 1.14144 122.138C3.00471 128.907 7.32535 134.733 13.254 138.47C19.5731 142.647 27.4227 143.772 34.6551 141.537L32.6501 140.396C36.978 153.239 48.0462 162.618 61.3934 164.752C76.4495 167.749 92.0711 165.657 105.816 158.804C114.036 154.926 121.501 149.611 127.862 143.108L126.67 143.604C135.032 144.122 143.417 143.085 151.403 140.545C158.789 138.335 165.797 135.012 172.188 130.69C178.105 126.781 183.062 121.579 186.688 115.474C189.981 109.724 191.428 103.096 190.832 96.4918C190.352 89.1781 186.767 82.4225 180.986 77.9395V80.9448C189.115 74.724 193.601 64.8347 192.935 54.6004C192.155 46.7295 188.271 39.4978 182.147 34.5138C176.024 29.5299 168.169 27.2069 160.329 28.0617L161.554 31.0297C167.074 25.7222 168.582 17.4637 165.295 10.5387C161.843 3.80427 154.265 0.288834 146.914 2.01075C142.862 2.81428 139.249 5.0901 136.768 8.40153C136.317 9.18915 136.58 10.1941 137.358 10.6586C138.145 11.0952 139.135 10.835 139.607 10.0674C143.471 5.52415 149.73 3.84498 155.339 5.84687C161.002 8.06304 164.379 13.9182 163.472 19.9471C163.14 23.2678 161.582 26.3439 159.103 28.5701C158.624 29.0728 158.486 29.8121 158.751 30.4549C159.016 31.0976 159.635 31.5225 160.328 31.5381C169.419 30.5028 178.412 34.1657 184.209 41.2649C189.736 48.3288 191.148 57.7893 187.925 66.1666C186.273 70.8775 183.245 74.9801 179.235 77.9395C178.777 78.2168 178.47 78.6886 178.402 79.2208C178.334 79.753 178.511 80.2873 178.884 80.6719C188.48 89.2265 190.41 103.528 183.426 114.333C179.753 120.268 174.751 125.262 168.816 128.917C162.292 133.084 155.162 136.209 147.681 138.181C143.639 139.289 139.498 139.999 135.317 140.301C133.29 140.434 131.255 140.421 129.226 140.355C128.232 140.197 127.222 140.171 126.221 140.281C125.344 140.746 124.583 141.405 123.996 142.207C118.73 147.322 112.728 151.615 106.192 154.943C93.7522 161.592 79.5531 164.179 65.5769 162.342C53.5619 161.228 42.8942 154.172 37.1399 143.534C36.5781 142.238 36.1274 140.897 35.7926 139.524C35.5462 138.659 34.654 138.151 33.7872 138.383C21.6358 141.8 8.92063 135.201 4.68206 123.279C2.43831 116.651 2.44555 109.464 4.70267 102.841C6.93926 96.2327 10.9215 90.3566 16.225 85.8391C22.2023 80.7439 29.1795 76.964 36.7051 74.7441C37.1385 74.6184 37.4905 74.3005 37.6604 73.8813C37.8303 73.4621 37.7993 72.9879 37.5763 72.5946C32.9428 64.5679 33.6233 54.525 39.297 47.2009C45.7721 38.8556 55.4229 33.5958 65.9268 32.6873C72.3028 31.812 78.7423 31.4911 85.1734 31.7283C85.8891 31.7134 86.4661 31.1357 86.4823 30.4179C87.3763 21.5778 91.9644 13.5322 99.108 8.27752C106.386 3.08043 115.551 1.30123 124.237 3.39969C129.285 4.54084 133.994 6.85914 137.982 10.1666C138.259 10.4138 138.68 10.4014 138.943 10.1383C139.205 9.87519 139.217 9.45265 138.971 9.17454H138.971Z" fill="#E7C4B2"/>
</svg>
