<svg width="151" height="22" viewBox="0 0 151 22" fill="none" xmlns="http://www.w3.org/2000/svg">
<path d="M11.4259 18.0208L4.36431 21.7333L5.71296 13.8701L1.10396e-05 8.3014L7.89511 7.15417L11.4259 0L14.9567 7.15417L22.8518 8.3014L17.1388 13.8701L18.4875 21.7333L11.4259 18.0208Z" fill="#F6D021"/>
<path d="M43.463 18.0208L36.4014 21.7333L37.75 13.8701L32.0371 8.3014L39.9322 7.15417L43.463 0L46.9938 7.15417L54.8888 8.3014L49.1759 13.8701L50.5245 21.7333L43.463 18.0208Z" fill="#F6D021"/>
<path d="M75.5 18.0208L68.4384 21.7333L69.7871 13.8701L64.0741 8.3014L71.9692 7.15417L75.5 0L79.0308 7.15417L86.9259 8.3014L81.213 13.8701L82.5616 21.7333L75.5 18.0208Z" fill="#F6D021"/>
<path d="M107.537 18.0208L100.475 21.7333L101.824 13.8701L96.1112 8.3014L104.006 7.15417L107.537 0L111.068 7.15417L118.963 8.3014L113.25 13.8701L114.599 21.7333L107.537 18.0208Z" fill="#F6D021"/>
<path d="M139.574 18.0208L132.513 21.7333L133.861 13.8701L128.148 8.3014L136.043 7.15417L139.574 0L143.105 7.15417L151 8.3014L145.287 13.8701L146.636 21.7333L139.574 18.0208Z" fill="#F6D021"/>
</svg>
