<svg width="93" height="56" viewBox="0 0 93 56" fill="none" xmlns="http://www.w3.org/2000/svg">
<path fill-rule="evenodd" clip-rule="evenodd" d="M22.0002 52.1701C14.9561 53.3968 7.81962 54.0195 0.669044 54.0313V54.0305C-0.0717392 54.0419 -0.288651 55.2467 0.48896 55.3639C8.72504 56.474 17.0926 56.1291 25.2089 54.3451C39.6307 51.3586 53.1929 45.1665 64.8877 36.229C70.7793 31.7616 76.1388 26.6352 80.8616 20.9502C83.3688 17.8734 85.684 14.6495 87.7954 11.2971L87.811 11.2192C88.2281 9.14097 88.6514 7.06589 89.0878 4.99325C89.3727 4.95392 89.658 4.91716 89.9436 4.88299C91.4155 4.71202 91.5016 2.48777 89.9436 2.52098C89.8336 2.52275 89.7236 2.52507 89.6136 2.52794C89.7131 2.06752 89.8135 1.6072 89.9146 1.14699L92.7918 2.35704C91.2827 5.42459 89.6147 8.40857 87.7954 11.2971L86.8606 15.9845C87.0036 15.7424 87.2664 15.5874 87.5572 15.5874C87.913 15.5874 88.2269 15.8194 88.3308 16.159C88.6247 17.3426 88.7903 18.5179 88.9579 19.7071C89.0144 20.1076 89.0711 20.5098 89.1329 20.9143L85.9102 21.3509C85.936 22.0523 86.412 22.6829 87.1214 22.8781C87.976 23.1133 88.8641 22.6326 89.1329 21.7893C89.6117 20.1398 89.9634 18.4561 90.1848 16.753L91.122 11.9075C91.7645 8.60529 92.3744 5.29624 92.9514 1.98038C93.1424 1.22289 92.7563 0.438679 92.0387 0.126907C91.3151 -0.183392 90.4733 0.0921669 90.0742 0.769924C89.8007 1.36353 89.5203 1.95362 89.2329 2.54008C87.1571 2.61832 85.0928 2.89326 83.0679 3.36148C81.9005 3.6458 80.7539 4.00964 79.6362 4.45044C78.6464 4.70173 77.7506 5.23449 77.0573 5.98425C76.8993 6.25651 76.8763 6.5866 76.995 6.87814C77.1138 7.16968 77.3609 7.38979 77.6641 7.47419C78.6483 7.51411 79.6282 7.32374 80.5259 6.91823C81.4647 6.63092 82.4174 6.38625 83.3712 6.14131C83.4505 6.12095 83.5298 6.10058 83.6091 6.08019C85.0192 5.71336 86.445 5.41151 87.882 5.17549C84.8461 10.8437 81.1516 16.1419 76.8712 20.9588C67.3909 31.7339 55.632 40.2733 42.4433 45.9605C35.8826 48.7857 29.0255 50.8685 22.0002 52.1701ZM86.3961 18.0242C86.5162 17.4352 86.6523 16.8494 86.8042 16.2673L86.8606 15.9845C86.8286 16.0386 86.8027 16.097 86.7837 16.159C86.6258 16.7819 86.5028 17.4026 86.3961 18.0242ZM86.3961 18.0242C86.1719 19.1244 86.0034 20.2355 85.8915 21.3534L85.9102 21.3509C85.905 21.2073 85.9186 21.0607 85.9529 20.9143C86.015 20.5215 86.0724 20.131 86.1296 19.742C86.2141 19.167 86.2982 18.5952 86.3961 18.0242Z" fill="#EF6D58"/>
</svg>
