<svg width="92" height="117" viewBox="0 0 92 117" fill="none" xmlns="http://www.w3.org/2000/svg">
<path fill-rule="evenodd" clip-rule="evenodd" d="M67.718 104.776C75.5012 99.7597 83.2845 94.7439 91.1237 89.8156C91.8188 89.3762 92.3637 90.4997 91.6982 90.9432L91.5494 91.0422C88.7125 92.9306 85.8794 94.8163 83.0259 96.678C72.8175 103.329 62.6099 109.982 52.403 116.636C52.097 116.784 51.7325 116.737 51.4745 116.516C51.2165 116.296 51.1139 115.943 51.2132 115.618C51.964 113.994 52.7042 112.365 53.4443 110.735C54.2784 108.899 55.1124 107.063 55.962 105.234C61.3042 93.7417 66.6457 82.2498 71.9866 70.7582C72.7869 70.4149 73.5883 70.074 74.391 69.7357L73.0093 68.5577C72.6684 69.2912 72.3275 70.0247 71.9866 70.7582C70.0446 71.5912 68.1095 72.4387 66.1813 73.3005C56.5983 77.5899 47.2034 82.2449 37.9967 87.2657C37.5712 87.4673 37.0641 87.3668 36.7484 87.0183C36.4327 86.6698 36.3829 86.1556 36.6259 85.7525L41.5707 76.7574C46.948 67.0427 52.3253 57.3296 57.7027 47.6179C58.5497 47.3393 59.3981 47.065 60.2479 46.795L59.0918 45.1092C58.6287 45.9454 58.1657 46.7817 57.7027 47.6179C55.9178 48.2051 54.1389 48.8116 52.3661 49.4373C43.2134 52.6782 34.235 56.3918 25.467 60.5633C25.0013 60.7849 24.4456 60.6754 24.0997 60.2938C23.7537 59.9123 23.6993 59.349 23.9658 58.9077C28.7906 50.9178 33.6142 42.9269 38.4366 34.9353C39.5358 34.5299 40.6297 34.1098 41.7182 33.6749L40.206 32.003C39.6162 32.9804 39.0264 33.9579 38.4366 34.9353C32.8516 36.9948 27.1317 38.672 21.3165 39.9545C20.8543 40.0389 20.386 39.8442 20.1206 39.4574C19.8552 39.0705 19.8421 38.5637 20.0873 38.1631C23.2216 34.2585 25.9085 30.0178 28.0987 25.5206C28.6834 25.5504 29.2681 25.5802 29.8528 25.6101L28.7908 24.055C28.5659 24.5464 28.3352 25.035 28.0987 25.5206C25.6485 25.3959 23.1982 25.2724 20.748 25.1501L18.5672 25.0442C17.9512 25.0796 17.3334 25.0372 16.7282 24.918C16.0887 24.5316 15.5531 23.9955 15.1675 23.356L13.966 21.9213C12.3179 19.9395 10.7145 17.9212 9.15576 15.8664C7.14013 13.2032 5.19451 10.4932 3.31889 7.73658C3.36471 8.31118 3.40778 8.88556 3.45086 9.46C3.48403 9.90232 3.5172 10.3447 3.55163 10.7872C3.56382 10.9513 3.57458 11.1157 3.58536 11.2804C3.60841 11.6326 3.63151 11.9855 3.66867 12.3365C3.78764 12.9069 3.72235 13.4953 3.48277 14.012C3.32767 14.2538 3.0571 14.39 2.77041 14.3705C2.48371 14.3511 2.22314 14.179 2.08436 13.9173C1.81395 13.3807 1.69587 12.7813 1.74395 12.1893L1.64648 10.6413C1.62597 10.3133 1.60499 9.9854 1.58401 9.65745C1.53349 8.86767 1.48295 8.07773 1.4389 7.2873L1.29198 4.69775C0.901783 4.1009 0.514781 3.50192 0.130989 2.9008C-0.0413517 2.55383 -0.0437384 2.14662 0.124531 1.79725C0.292799 1.44789 0.612896 1.19545 0.99201 1.11312C1.06474 1.0973 1.13754 1.08207 1.21042 1.06745C1.22203 0.910772 1.23589 0.754306 1.25201 0.598089L1.2563 0.601909C1.25293 0.656918 1.25625 0.713452 1.26694 0.770492C1.27644 0.865049 1.28107 0.959507 1.28093 1.0535C1.41468 1.02741 1.54866 1.00333 1.68282 0.981285L1.2563 0.601909C1.27398 0.31394 1.4753 0.0679674 1.76344 0.0119373C2.10661 -0.0547945 2.4484 0.172117 2.53468 0.52397C2.56183 0.636128 2.58784 0.748501 2.61272 0.861081C5.12979 0.62315 7.67459 1.0874 9.95777 2.21817C10.5374 2.59585 10.7059 3.36882 10.336 3.9541C9.94762 4.52083 9.18503 4.68785 8.59597 4.33519C6.94863 3.55634 5.14165 3.2053 3.34001 3.30015C3.19568 3.07801 3.05181 2.85557 2.90838 2.63282C2.93456 2.86339 2.95605 3.09439 2.97282 3.32567C3.09516 3.3151 3.21757 3.3066 3.34001 3.30015C7.71429 10.033 12.5004 16.4899 17.6713 22.6339C17.5028 22.625 17.3343 22.616 17.1658 22.607L17.9719 22.9903C17.8715 22.8716 17.7713 22.7528 17.6713 22.6339C20.9969 22.8101 24.3237 22.9666 27.6513 23.1232C28.4318 23.16 29.2123 23.1967 29.9929 23.2337C30.3598 23.2583 30.695 23.4498 30.9021 23.7531C31.1093 24.0565 31.1656 24.4382 31.0549 24.7888C29.1262 29.0641 26.7626 33.1271 24.0031 36.9142C22.9532 37.1707 21.8998 37.4138 20.8432 37.6433L22.0735 39.4369C22.7366 38.6106 23.38 37.7694 24.0031 36.9142C29.6699 35.5294 35.235 33.7519 40.6579 31.5941C41.1277 31.3734 41.6863 31.485 42.0344 31.869C42.3826 32.2531 42.4385 32.8195 42.1723 33.2649C37.4114 41.1394 32.6502 49.0148 27.8887 56.8911C26.7267 57.4181 25.5688 57.9539 24.4156 58.4999L25.9146 60.1566C26.5726 59.0681 27.2307 57.9796 27.8887 56.8911C29.264 56.2673 30.645 55.6558 32.0309 55.0538C41.1062 51.1089 50.3754 47.6266 59.803 44.6205C60.2371 44.5457 60.6748 44.7303 60.9235 45.0932C61.1723 45.4561 61.1866 45.9307 60.9602 46.3084C59.3013 49.3003 57.6416 52.2907 55.9812 55.2797C50.7357 64.7626 45.4727 74.2359 40.1923 83.6997C39.1378 84.2557 38.0858 84.8162 37.0365 85.3812L38.4095 86.8932C39.004 85.8288 39.5982 84.7643 40.1923 83.6997C41.7776 82.8639 43.3688 82.0383 44.9658 81.2229C54.3145 76.4485 63.8258 72.0363 73.4997 67.9864C74.1925 67.6938 75.2776 68.3168 74.8802 69.1622L70.0369 79.5177C64.6999 90.8749 59.3625 102.231 54.0248 113.587C53.2275 114.1 52.4302 114.612 51.6328 115.124L52.8248 116.141C53.2248 115.29 53.6248 114.438 54.0248 113.587C56.1386 112.229 58.2525 110.87 60.3662 109.509C62.818 107.933 65.268 106.354 67.718 104.776Z" fill="#FFD5CE"/>
</svg>
